<?xml version="1.0" encoding="utf-8"?>
<!-- Generator: Adobe Illustrator 16.0.0, SVG Export Plug-In . SVG Version: 6.00 Build 0)  -->
<!DOCTYPE svg PUBLIC "-//W3C//DTD SVG 1.1//EN" "http://www.w3.org/Graphics/SVG/1.1/DTD/svg11.dtd">
<svg version="1.1" id="Layer_1" xmlns="http://www.w3.org/2000/svg" xmlns:xlink="http://www.w3.org/1999/xlink" x="0px" y="0px"
	 width="280px" height="75px" viewBox="0 0 280 75" enable-background="new 0 0 280 75" xml:space="preserve">
<g>
	<path d="M3.839,21.338h14.545L32.57,56.333l14.041-34.995h14.474v50.549H48.771V41.572L37.466,71.887h-9.937L16.152,41.5v30.387
		H3.839V21.338z"/>
	<path d="M101.042,72.391c-14.33,0-25.995-10.729-25.995-25.922c0-15.194,11.665-25.851,25.995-25.851
		c14.401,0,25.851,10.657,25.851,25.851C126.893,61.661,115.371,72.391,101.042,72.391z M101.042,61.157
		c8.064,0,13.321-5.833,13.321-14.688c0-9.001-5.256-14.69-13.321-14.69c-8.209,0-13.393,5.688-13.393,14.69
		C87.649,55.324,92.833,61.157,101.042,61.157z"/>
	<path d="M175.346,21.338h13.033l-17.93,50.549h-15.408l-17.93-50.549h13.105l12.528,38.163L175.346,21.338z"/>
	<path d="M215.232,1.608v9.577l-17.354,7.272V9.961L215.232,1.608z M200.688,21.338H213v50.549h-12.313V21.338z"/>
	<path d="M252.457,20.762c12.025,0,21.098,6.769,23.979,17.714h-13.537c-2.088-4.321-5.904-6.481-10.586-6.481
		c-7.561,0-12.744,5.617-12.744,14.545s5.184,14.546,12.744,14.546c4.682,0,8.498-2.16,10.586-6.481h13.537
		c-2.881,10.945-11.953,17.642-23.979,17.642c-14.906,0-25.418-10.585-25.418-25.706S237.551,20.762,252.457,20.762z"/>
</g>
</svg>
